<svg xmlns="http://www.w3.org/2000/svg" width="920" height="183" viewBox="0 0 920 183" role="img" aria-label="Languages">
  <style>
    text { font-family: -apple-system,BlinkMacSystemFont,'Segoe UI',Helvetica,Arial,'Liberation Sans',sans-serif; }
    .t { font-size: 15px; font-weight: 600; fill: #0969DA; }
    .s { font-size: 10.5px; fill: #6E7781; }
    .l { font-size: 11.5px; fill: #1F2328; }
    .m { font-size: 11px; fill: #57606A; }
    .n { font-size: 27px; font-weight: 700; fill: #1F2328; }
    .k { font-size: 10px; fill: #6E7781; letter-spacing: .04em; }
  </style>
  <rect x="0.5" y="0.5" width="919" height="182" rx="6"
        fill="#FFFFFF" stroke="#D0D7DE"/>
  <text class="t" x="22" y="30">Languages</text>
  <text class="s" x="22" y="48">20.6 MB of code across all 141 repositories · measured in bytes, not repository count</text>
  <rect x="22.00" y="66" width="725.86" height="11" fill="#3178c6"/>
  <rect x="747.86" y="66" width="91.65" height="11" fill="#f1e05a"/>
  <rect x="839.50" y="66" width="23.19" height="11" fill="#00ADD8"/>
  <rect x="862.69" y="66" width="16.53" height="11" fill="#e34c26"/>
  <rect x="879.22" y="66" width="12.19" height="11" fill="#663399"/>
  <rect x="891.41" y="66" width="2.06" height="11" fill="#3572A5"/>
  <rect x="893.47" y="66" width="2.05" height="11" fill="#012456"/>
  <rect x="895.53" y="66" width="1.41" height="11" fill="#89e051"/>
  <rect x="896.94" y="66" width="1.06" height="11" fill="#384d54"/>
  <circle cx="27" cy="98" r="5" fill="#3178c6"/><text class="l" x="39" y="102">TypeScript</text><text class="m" x="288" y="102" text-anchor="end">82.9%</text>
  <circle cx="319" cy="98" r="5" fill="#f1e05a"/><text class="l" x="331" y="102">JavaScript</text><text class="m" x="580" y="102" text-anchor="end">10.5%</text>
  <circle cx="611" cy="98" r="5" fill="#00ADD8"/><text class="l" x="623" y="102">Go</text><text class="m" x="872" y="102" text-anchor="end">2.6%</text>
  <circle cx="27" cy="121" r="5" fill="#e34c26"/><text class="l" x="39" y="125">HTML</text><text class="m" x="288" y="125" text-anchor="end">1.9%</text>
  <circle cx="319" cy="121" r="5" fill="#663399"/><text class="l" x="331" y="125">CSS</text><text class="m" x="580" y="125" text-anchor="end">1.4%</text>
  <circle cx="611" cy="121" r="5" fill="#3572A5"/><text class="l" x="623" y="125">Python</text><text class="m" x="872" y="125" text-anchor="end">0.23%</text>
  <circle cx="27" cy="144" r="5" fill="#012456"/><text class="l" x="39" y="148">PowerShell</text><text class="m" x="288" y="148" text-anchor="end">0.23%</text>
  <circle cx="319" cy="144" r="5" fill="#89e051"/><text class="l" x="331" y="148">Shell</text><text class="m" x="580" y="148" text-anchor="end">0.16%</text>
  <circle cx="611" cy="144" r="5" fill="#384d54"/><text class="l" x="623" y="148">Dockerfile</text><text class="m" x="872" y="148" text-anchor="end">0.12%</text>
</svg>
