<svg xmlns="http://www.w3.org/2000/svg" width="452" height="224" viewBox="0 0 452 224" role="img" aria-label="Languages">
  <style>
    text { font-family: -apple-system,BlinkMacSystemFont,'Segoe UI',Helvetica,Arial,'Liberation Sans',sans-serif; }
    .t { font-size: 15px; font-weight: 600; fill: #58A6FF; }
    .s { font-size: 10.5px; fill: #6E7681; }
    .l { font-size: 11.5px; fill: #E6EDF3; }
    .m { font-size: 11px; fill: #8B949E; }
    .n { font-size: 27px; font-weight: 700; fill: #E6EDF3; }
    .k { font-size: 10px; fill: #6E7681; letter-spacing: .04em; }
  </style>
  <rect x="0.5" y="0.5" width="451" height="223" rx="6"
        fill="#0D1117" stroke="#30363D"/>
  <text class="t" x="22" y="30">Languages</text>
  <text class="s" x="22" y="48">20.6 MB of code across 141 repositories · public + private</text>
  <rect x="22.00" y="66" width="338.26" height="11" fill="#3178c6"/>
  <rect x="360.26" y="66" width="42.71" height="11" fill="#f1e05a"/>
  <rect x="402.98" y="66" width="10.81" height="11" fill="#00ADD8"/>
  <rect x="413.78" y="66" width="7.70" height="11" fill="#e34c26"/>
  <rect x="421.48" y="66" width="5.68" height="11" fill="#663399"/>
  <rect x="427.17" y="66" width="0.96" height="11" fill="#6b7f9c"/>
  <rect x="428.12" y="66" width="0.72" height="11" fill="#3572A5"/>
  <rect x="428.85" y="66" width="0.66" height="11" fill="#89e051"/>
  <circle cx="27" cy="96" r="5" fill="#3178c6"/><text class="l" x="39" y="100">TypeScript</text><text class="m" x="214" y="100" text-anchor="end">82.9%</text>
  <circle cx="231" cy="96" r="5" fill="#f1e05a"/><text class="l" x="243" y="100">JavaScript</text><text class="m" x="418" y="100" text-anchor="end">10.5%</text>
  <circle cx="27" cy="118" r="5" fill="#00ADD8"/><text class="l" x="39" y="122">Go</text><text class="m" x="214" y="122" text-anchor="end">2.6%</text>
  <circle cx="231" cy="118" r="5" fill="#e34c26"/><text class="l" x="243" y="122">HTML</text><text class="m" x="418" y="122" text-anchor="end">1.9%</text>
  <circle cx="27" cy="140" r="5" fill="#663399"/><text class="l" x="39" y="144">CSS</text><text class="m" x="214" y="144" text-anchor="end">1.4%</text>
  <circle cx="231" cy="140" r="5" fill="#6b7f9c"/><text class="l" x="243" y="144">PowerShell</text><text class="m" x="418" y="144" text-anchor="end">0.23%</text>
  <circle cx="27" cy="162" r="5" fill="#3572A5"/><text class="l" x="39" y="166">Python</text><text class="m" x="214" y="166" text-anchor="end">0.18%</text>
  <circle cx="231" cy="162" r="5" fill="#89e051"/><text class="l" x="243" y="166">Shell</text><text class="m" x="418" y="166" text-anchor="end">0.16%</text>
</svg>
